<?xml version="1.0" encoding="utf-8"?>
<!-- Generator: Adobe Illustrator 19.0.0, SVG Export Plug-In . SVG Version: 6.00 Build 0)  -->
<svg version="1.1" id="Layer_1" xmlns="http://www.w3.org/2000/svg" xmlns:xlink="http://www.w3.org/1999/xlink" x="0px" y="0px"
	 viewBox="0 0 620 620" style="enable-background:new 0 0 620 620;" xml:space="preserve">
<style type="text/css">
	.st0{fill:#919191;}
	.st1{fill:#FFFFFF;}
</style>
<path class="st0" d="M439,620.3H182.3C81.6,620.3,0,538.7,0,438V182.3C0,81.6,81.6,0,182.3,0H439c100.7,0,182.3,81.6,182.3,182.3
	V438C621.2,538.7,539.6,620.3,439,620.3z"/>
<g id="XMLID_1_">
	<g id="XMLID_33_">
		<path id="XMLID_35_" class="st1" d="M355,310.2c-0.6,26.2-20.8,45.3-47.1,44.7c-23.6-0.5-43.5-21.8-42.9-45.7
			c0.7-25.8,21.2-44.9,47.4-44.2C335.6,265.6,355.6,286.8,355,310.2z M329.9,310c-10.1-6.8-19.6-13.1-29.5-19.7
			c0,13.4,0,26.1,0,39.4C310.3,323.1,319.8,316.7,329.9,310z"/>
	</g>
</g>
</svg>
