<svg width="640" height="475" viewBox="0 0 640 475" fill="none" xmlns="http://www.w3.org/2000/svg">
<path opacity="0.1" d="M282.073 17.905C256.744 7.60503 229.985 -0.988974 202.673 0.0920258C162.508 1.67203 123.987 25.835 105.073 61.307C89.0471 91.36 87.0731 126.584 80.1731 159.935C71.6571 201.035 55.3731 240.072 37.9731 278.262C28.6301 298.776 18.7731 319.733 17.2411 342.223C15.1091 373.437 30.0321 404.547 53.4411 425.314C76.8501 446.081 107.925 457.039 139.12 459.429C155.72 460.699 173.068 459.521 187.82 451.792C203.415 443.621 214.792 428.847 230.45 420.792C244.964 413.322 261.944 412.27 278.24 413.247C299.583 414.528 320.613 418.998 340.631 426.509C363.408 435.065 384.588 447.448 407.314 456.125C430.04 464.802 455.431 469.634 478.663 462.4C500.463 455.6 517.736 439.093 533.25 422.372C558.779 394.919 582.062 365.461 602.875 334.282C616.901 313.274 629.956 291.105 636.162 266.614C648.016 219.794 631.697 166.968 595.503 135.025C565.532 108.518 525.286 97.025 485.891 90.025C449.967 83.664 408.429 83.267 375.36 66.684C343.82 50.871 315.125 31.35 282.073 17.905Z" fill="#584DFC"/>
<path d="M536.695 331.506L537.655 332.471L538.086 330.81L537.626 329.172H536.442L536.695 331.506Z" fill="#464A5F"/>
<path opacity="0.1" d="M536.695 331.506L537.655 332.471L538.086 330.81L537.626 329.172H536.442L536.695 331.506Z" fill="black"/>
<path d="M536.695 331.506L537.626 332.5L536.695 333.592L535.695 333.219L535.448 332.736L536.695 331.506Z" fill="#9C9CA1"/>
<path opacity="0.1" d="M536.695 331.506L537.626 332.5L536.695 333.592L535.695 333.219L535.448 332.736L536.695 331.506Z" fill="black"/>
<path d="M359.82 156.947L254.733 262.034C250.799 265.967 250.786 272.341 254.704 276.29L415.783 438.651C419.704 442.602 426.082 442.636 430.045 438.726L536.701 333.598L359.82 156.947Z" fill="#9C9CA1"/>
<path opacity="0.1" d="M359.82 156.947L254.733 262.034C250.799 265.967 250.786 272.341 254.704 276.29L415.783 438.651C419.704 442.602 426.082 442.636 430.045 438.726L536.701 333.598L359.82 156.947Z" fill="black"/>
<path d="M359.82 154.861L254.733 259.948C250.798 263.881 250.785 270.256 254.704 274.205L415.783 436.559C419.703 440.511 426.081 440.547 430.045 436.639L536.701 331.483L359.82 154.861Z" fill="#9C9CA1"/>
<path d="M370.846 80.993L361.204 154.168L538.085 330.811L548.244 256.432C548.71 253.058 547.551 249.662 545.118 247.278L374.455 79.741C373.875 79.178 373.028 78.99 372.264 79.255C371.501 79.5201 370.952 80.1929 370.846 80.994V80.993Z" fill="#464A5F"/>
<path opacity="0.1" d="M370.846 80.993L361.204 154.168L538.085 330.811L548.244 256.432C548.71 253.058 547.551 249.662 545.118 247.278L374.455 79.741C373.875 79.178 373.028 78.99 372.264 79.255C371.501 79.5201 370.952 80.1929 370.846 80.994V80.993Z" fill="black"/>
<path d="M369.456 81.6878L359.814 154.861L536.695 331.506L546.854 257.127C547.32 253.753 546.161 250.357 543.728 247.973L373.065 80.4358C372.485 79.8728 371.638 79.6848 370.874 79.9499C370.111 80.2149 369.562 80.8877 369.456 81.6888V81.6878Z" fill="#464A5F"/>
<g opacity="0.1">
<path d="M360.291 188.488L353.891 194.941C353.509 195.322 353.295 195.838 353.295 196.377C353.295 196.916 353.509 197.433 353.891 197.814L360.373 204.462C361.151 205.27 362.436 205.295 363.246 204.519L369.613 198.508C370.417 197.746 370.462 196.48 369.713 195.664L363.231 188.573C362.86 188.156 362.333 187.911 361.776 187.894C361.218 187.878 360.678 188.092 360.283 188.487L360.291 188.488Z" fill="black"/>
<path d="M372.209 200.412L365.836 206.859C365.06 207.648 365.06 208.914 365.836 209.703L372.318 216.351C372.691 216.74 373.204 216.965 373.743 216.976C374.282 216.987 374.803 216.782 375.191 216.408L381.558 210.408C382.375 209.64 382.42 208.357 381.658 207.535L375.158 200.461C374.781 200.05 374.252 199.812 373.694 199.803C373.136 199.794 372.6 200.016 372.21 200.415L372.209 200.412Z" fill="black"/>
<path d="M384.721 212.921L378.348 219.374C377.575 220.165 377.575 221.428 378.348 222.218L384.835 228.866C385.613 229.674 386.898 229.7 387.708 228.924L394.075 222.913C394.88 222.151 394.924 220.885 394.175 220.069L387.693 212.978C387.318 212.556 386.783 212.309 386.217 212.298C385.652 212.287 385.108 212.513 384.716 212.92L384.721 212.921Z" fill="black"/>
<path d="M397.378 225.58L391.011 232.062C390.238 232.853 390.238 234.116 391.011 234.906L397.499 241.554C398.277 242.362 399.562 242.388 400.372 241.612L406.733 235.601C407.543 234.843 407.591 233.575 406.842 232.757L400.326 225.637C399.95 225.226 399.422 224.987 398.864 224.976C398.307 224.965 397.77 225.184 397.378 225.58Z" fill="black"/>
<path d="M410.037 238.236L403.67 244.701C402.878 245.495 402.878 246.78 403.67 247.574L410.157 254.222C410.935 255.03 412.221 255.055 413.03 254.279L419.391 248.268C420.201 247.51 420.25 246.242 419.5 245.424L413.018 238.333C412.647 237.905 412.115 237.651 411.549 237.632C410.983 237.613 410.435 237.831 410.036 238.233L410.037 238.236Z" fill="black"/>
<path d="M423.495 250.087L415.582 258.103C415.22 258.474 415.22 259.065 415.582 259.436L423.552 267.601C423.923 267.963 424.515 267.963 424.885 267.601L432.798 260.131C433.176 259.774 433.197 259.18 432.844 258.798L424.88 250.087C424.7 249.897 424.45 249.789 424.188 249.789C423.926 249.789 423.675 249.897 423.495 250.087Z" fill="black"/>
<path d="M436.153 262.747L428.24 270.792C427.879 271.161 427.879 271.75 428.24 272.119L436.21 280.29C436.581 280.652 437.172 280.652 437.543 280.29L445.456 272.82C445.834 272.463 445.855 271.869 445.502 271.487L437.538 262.776C437.362 262.582 437.114 262.469 436.852 262.464C436.59 262.458 436.337 262.561 436.153 262.747Z" fill="black"/>
<path d="M447.359 273.95L439.446 281.995C439.085 282.364 439.085 282.953 439.446 283.322L447.416 291.493C447.787 291.855 448.379 291.855 448.749 291.493L456.662 284.023C457.04 283.666 457.061 283.072 456.708 282.69L448.738 274.008C448.566 273.812 448.321 273.695 448.061 273.684C447.8 273.674 447.547 273.77 447.359 273.951V273.95Z" fill="black"/>
<path d="M459.908 286.501L451.995 294.511C451.63 294.88 451.63 295.475 451.995 295.844L459.965 304.009C460.334 304.374 460.929 304.374 461.298 304.009L469.211 296.539C469.586 296.181 469.606 295.589 469.257 295.206L461.293 286.495C461.112 286.306 460.861 286.199 460.599 286.2C460.337 286.201 460.087 286.31 459.908 286.501Z" fill="black"/>
<path d="M472.062 298.655L464.149 306.665C463.785 307.034 463.785 307.628 464.149 307.998L472.119 316.169C472.49 316.531 473.082 316.531 473.452 316.169L481.365 308.699C481.74 308.341 481.761 307.749 481.411 307.366L473.418 298.684C473.243 298.499 473.001 298.392 472.746 298.386C472.492 298.381 472.245 298.478 472.062 298.655Z" fill="black"/>
<path d="M484.214 310.785L476.29 318.83C475.929 319.199 475.929 319.789 476.29 320.157L484.26 328.328C484.631 328.69 485.223 328.69 485.593 328.328L493.505 320.858C493.883 320.502 493.904 319.907 493.551 319.525L485.587 310.814C485.411 310.624 485.166 310.513 484.907 310.508C484.648 310.503 484.398 310.603 484.214 310.785Z" fill="black"/>
<path d="M496.368 322.962L488.455 330.973C488.093 331.343 488.093 331.935 488.455 332.306L496.402 340.471C496.765 340.841 497.357 340.854 497.735 340.5L505.648 333.03C506.026 332.673 506.047 332.079 505.694 331.697L497.73 322.986C497.555 322.799 497.311 322.691 497.055 322.685C496.799 322.68 496.551 322.778 496.368 322.957V322.962Z" fill="black"/>
<path d="M348.724 200.061L342.357 206.508C341.975 206.888 341.761 207.405 341.761 207.944C341.761 208.483 341.975 209 342.357 209.381L348.845 216.029C349.218 216.418 349.731 216.643 350.27 216.654C350.809 216.665 351.33 216.46 351.718 216.086L358.079 210.086C358.902 209.322 358.951 208.036 358.188 207.213L351.666 200.113C351.29 199.704 350.762 199.467 350.206 199.457C349.651 199.448 349.115 199.666 348.724 200.061Z" fill="black"/>
<path d="M323.441 225.339L317.068 231.786C316.276 232.58 316.276 233.865 317.068 234.659L323.55 241.259C324.322 242.053 325.588 242.081 326.394 241.322L332.761 235.311C333.568 234.55 333.613 233.282 332.861 232.467L326.379 225.399C326.004 224.988 325.477 224.749 324.92 224.739C324.364 224.728 323.828 224.946 323.437 225.342L323.441 225.339Z" fill="black"/>
<path d="M360.642 211.979L354.269 218.426C353.887 218.807 353.673 219.323 353.673 219.862C353.673 220.401 353.887 220.918 354.269 221.299L360.751 227.947C361.527 228.757 362.813 228.785 363.624 228.01L369.985 221.971C370.802 221.203 370.847 219.92 370.085 219.098L363.603 212.013C363.225 211.596 362.69 211.356 362.128 211.349C361.565 211.343 361.025 211.571 360.638 211.979H360.642Z" fill="black"/>
<path d="M373.151 224.494L366.785 230.941C366.009 231.73 366.009 232.996 366.785 233.785L373.273 240.433C373.646 240.823 374.159 241.048 374.698 241.058C375.237 241.069 375.758 240.864 376.146 240.49L382.507 234.49C383.33 233.727 383.379 232.441 382.616 231.617L376.134 224.526C375.753 224.108 375.215 223.867 374.65 223.861C374.084 223.856 373.541 224.086 373.152 224.497L373.151 224.494Z" fill="black"/>
<path d="M385.814 237.147L379.447 243.6C378.672 244.389 378.672 245.655 379.447 246.444L385.934 253.092C386.706 253.887 387.975 253.912 388.778 253.149L395.145 247.149C395.968 246.385 396.017 245.1 395.254 244.276L388.761 237.237C388.388 236.823 387.862 236.58 387.306 236.564C386.749 236.548 386.21 236.76 385.813 237.151L385.814 237.147Z" fill="black"/>
<path d="M335.765 236.855L329.393 243.302C328.617 244.091 328.617 245.357 329.393 246.146L335.875 252.794C336.248 253.183 336.761 253.408 337.3 253.419C337.839 253.43 338.36 253.225 338.748 252.851L345.115 246.851C345.932 246.084 345.977 244.801 345.215 243.978L338.733 236.893C338.355 236.475 337.819 236.233 337.255 236.226C336.691 236.22 336.15 236.449 335.762 236.859L335.765 236.855Z" fill="black"/>
<path d="M348.276 249.363L341.911 255.812C341.529 256.192 341.314 256.709 341.314 257.248C341.314 257.787 341.529 258.304 341.911 258.685L348.398 265.333C348.771 265.722 349.284 265.947 349.823 265.958C350.362 265.968 350.883 265.764 351.271 265.39L357.632 259.39C358.455 258.626 358.504 257.341 357.741 256.517L351.259 249.426C350.883 249.003 350.348 248.756 349.782 248.744C349.216 248.732 348.671 248.956 348.277 249.363H348.276Z" fill="black"/>
<path d="M360.935 262.023L354.568 268.476C353.792 269.265 353.792 270.531 354.568 271.321L361.056 277.969C361.834 278.777 363.119 278.802 363.929 278.026L370.29 272.015C371.1 271.257 371.148 269.989 370.399 269.171L363.917 262.08C363.54 261.658 363.004 261.412 362.438 261.401C361.873 261.39 361.328 261.615 360.935 262.023Z" fill="black"/>
<path d="M398.469 249.806L392.102 256.259C391.326 257.048 391.326 258.314 392.102 259.103L398.589 265.751C398.962 266.141 399.475 266.366 400.014 266.376C400.553 266.387 401.074 266.183 401.462 265.808L407.829 259.808C408.224 259.441 408.457 258.932 408.476 258.392C408.494 257.853 408.298 257.329 407.929 256.935L401.407 249.879C401.034 249.467 400.507 249.226 399.951 249.212C399.395 249.199 398.857 249.416 398.465 249.81L398.469 249.806Z" fill="black"/>
<path d="M411.128 262.465L404.756 268.918C403.98 269.707 403.98 270.973 404.756 271.762L411.243 278.41C411.616 278.799 412.129 279.024 412.668 279.035C413.207 279.045 413.728 278.841 414.116 278.467L420.483 272.456C421.291 271.695 421.335 270.426 420.583 269.611L414.067 262.511C413.691 262.101 413.163 261.863 412.607 261.853C412.051 261.843 411.515 262.062 411.125 262.459L411.128 262.465Z" fill="black"/>
<path d="M424.575 274.314L416.663 282.359C416.298 282.728 416.298 283.322 416.663 283.692L424.635 291.823C425.004 292.188 425.599 292.188 425.968 291.823L433.881 284.353C434.256 283.995 434.276 283.403 433.927 283.02L425.965 274.309C425.784 274.117 425.532 274.01 425.268 274.011C425.005 274.012 424.753 274.122 424.574 274.315L424.575 274.314Z" fill="black"/>
<path d="M435.791 285.502L427.879 293.547C427.514 293.916 427.514 294.511 427.879 294.88L435.849 303.046C436.218 303.411 436.813 303.411 437.182 303.046L445.094 295.576C445.469 295.218 445.489 294.626 445.14 294.243L437.176 285.532C437 285.338 436.752 285.225 436.49 285.219C436.228 285.214 435.975 285.316 435.791 285.503V285.502Z" fill="black"/>
<path d="M448.343 298.069L440.425 306.114C440.064 306.483 440.064 307.072 440.425 307.441L448.389 315.612C448.76 315.974 449.352 315.974 449.722 315.612L457.635 308.142C458.015 307.787 458.038 307.192 457.687 306.809L449.723 298.098C449.547 297.906 449.3 297.794 449.04 297.789C448.779 297.783 448.528 297.885 448.344 298.069H448.343Z" fill="black"/>
<path d="M460.494 310.211L452.581 318.256C452.216 318.625 452.216 319.22 452.581 319.589L460.545 327.754C460.918 328.117 461.512 328.117 461.884 327.754L469.791 320.284C470.171 319.929 470.194 319.334 469.843 318.951L461.879 310.24C461.703 310.046 461.455 309.933 461.193 309.927C460.931 309.922 460.678 310.024 460.494 310.211Z" fill="black"/>
<path d="M361.125 236.521L354.752 242.98C353.977 243.769 353.977 245.034 354.752 245.824L361.24 252.472C361.612 252.863 362.125 253.089 362.664 253.099C363.204 253.11 363.726 252.905 364.113 252.53L370.48 246.53C371.3 245.764 371.345 244.478 370.58 243.657L364.064 236.583C363.69 236.17 363.162 235.931 362.605 235.92C362.049 235.909 361.512 236.128 361.122 236.526L361.125 236.521Z" fill="black"/>
<path d="M373.784 249.18L367.411 255.621C366.635 256.41 366.635 257.676 367.411 258.465L373.899 265.113C374.271 265.504 374.784 265.73 375.324 265.74C375.863 265.751 376.385 265.546 376.772 265.17L383.139 259.17C383.956 258.403 384.001 257.12 383.239 256.297L376.757 249.212C376.378 248.792 375.841 248.551 375.276 248.545C374.71 248.54 374.168 248.771 373.781 249.183L373.784 249.18Z" fill="black"/>
<path d="M386.443 261.839L380.071 268.263C379.295 269.052 379.295 270.318 380.071 271.107L386.553 277.755C386.926 278.145 387.438 278.37 387.978 278.381C388.517 278.392 389.038 278.187 389.426 277.813L395.793 271.813C396.61 271.046 396.655 269.763 395.893 268.94L389.411 261.849C389.028 261.436 388.491 261.2 387.927 261.199C387.363 261.198 386.825 261.431 386.44 261.843L386.443 261.839Z" fill="black"/>
<path d="M399.102 274.497L392.729 280.944C391.953 281.733 391.953 282.999 392.729 283.788L399.211 290.436C399.584 290.825 400.097 291.05 400.636 291.061C401.175 291.072 401.696 290.867 402.084 290.493L408.451 284.493C409.268 283.725 409.313 282.442 408.551 281.62L402.069 274.529C401.689 274.112 401.153 273.873 400.59 273.867C400.026 273.862 399.486 274.091 399.098 274.5L399.102 274.497Z" fill="black"/>
<path d="M412.559 286.346L404.641 294.356C404.279 294.727 404.279 295.318 404.641 295.689L412.605 303.855C412.974 304.22 413.569 304.22 413.938 303.855L421.85 296.385C422.23 296.03 422.253 295.435 421.902 295.052L413.938 286.335C413.757 286.147 413.507 286.041 413.246 286.043C412.985 286.045 412.737 286.155 412.559 286.346Z" fill="black"/>
<path d="M423.764 297.568L415.846 305.578C415.484 305.949 415.484 306.541 415.846 306.911L423.81 315.077C424.179 315.442 424.774 315.442 425.143 315.077L433.055 307.607C433.435 307.252 433.458 306.658 433.107 306.274L425.149 297.568C424.97 297.376 424.719 297.268 424.457 297.268C424.194 297.268 423.943 297.376 423.764 297.568Z" fill="black"/>
<path d="M436.308 310.094L428.395 318.139C428.033 318.51 428.033 319.101 428.395 319.472L436.359 327.637C436.721 328.01 437.315 328.023 437.692 327.666L445.605 320.196C445.985 319.841 446.008 319.246 445.657 318.863L437.687 310.152C437.515 309.956 437.27 309.839 437.01 309.828C436.749 309.818 436.496 309.914 436.308 310.095V310.094Z" fill="black"/>
<path d="M448.467 322.277L440.55 330.264C440.188 330.635 440.188 331.226 440.55 331.597L448.514 339.762C448.875 340.135 449.47 340.148 449.847 339.791L457.76 332.321C458.14 331.966 458.163 331.371 457.812 330.988L449.859 322.277C449.681 322.082 449.428 321.97 449.164 321.97C448.899 321.97 448.646 322.082 448.468 322.277H448.467Z" fill="black"/>
<path d="M472.648 322.376L464.735 330.421C464.37 330.79 464.37 331.385 464.735 331.754L472.705 339.919C473.066 340.292 473.661 340.305 474.038 339.948L481.951 332.478C482.326 332.12 482.346 331.528 481.997 331.145L474.033 322.434C473.861 322.236 473.615 322.118 473.353 322.107C473.091 322.096 472.836 322.194 472.648 322.377V322.376Z" fill="black"/>
<path d="M484.801 334.534L476.865 342.544C476.5 342.913 476.5 343.507 476.865 343.877L484.852 352.042C485.213 352.415 485.808 352.428 486.185 352.071L494.098 344.601C494.473 344.243 494.494 343.651 494.144 343.268L486.18 334.557C486.004 334.364 485.757 334.252 485.496 334.248C485.235 334.243 484.983 334.347 484.801 334.534Z" fill="black"/>
<path d="M423.23 323.18L415.76 330.725C415.273 331.221 415.273 332.016 415.76 332.512L423.282 340.223C423.769 340.719 424.564 340.734 425.069 340.257L432.539 333.229C433.028 332.757 433.063 331.986 432.619 331.471L425.097 323.242C424.864 322.976 424.53 322.818 424.177 322.806C423.823 322.794 423.48 322.929 423.229 323.179L423.23 323.18Z" fill="black"/>
<path d="M435.383 335.333L427.913 342.878C427.426 343.374 427.426 344.169 427.913 344.665L435.435 352.376C435.922 352.872 436.717 352.887 437.222 352.41L444.692 345.382C445.198 344.905 445.229 344.11 444.761 343.595L437.216 335.366C436.98 335.114 436.652 334.969 436.307 334.963C435.962 334.956 435.629 335.089 435.383 335.332V335.333Z" fill="black"/>
<path d="M447.56 347.486L440.09 355.031C439.603 355.527 439.603 356.322 440.09 356.818L447.612 364.529C448.097 365.027 448.892 365.045 449.399 364.569L456.869 357.535C457.379 357.059 457.41 356.262 456.938 355.748L449.416 347.525C449.182 347.263 448.849 347.109 448.497 347.102C448.145 347.094 447.806 347.233 447.56 347.485V347.486Z" fill="black"/>
<path d="M459.932 359.399L452.019 367.415C451.657 367.785 451.657 368.377 452.019 368.748L459.989 376.914C460.358 377.279 460.953 377.279 461.322 376.914L469.235 369.444C469.613 369.087 469.634 368.493 469.281 368.111L461.317 359.4C461.137 359.209 460.887 359.102 460.625 359.102C460.363 359.102 460.112 359.209 459.932 359.4V359.399Z" fill="black"/>
<path d="M336.197 211.919L329.405 218.849C329.023 219.229 328.809 219.746 328.809 220.285C328.809 220.825 329.023 221.341 329.405 221.722L348.367 240.491C349.145 241.259 350.391 241.274 351.188 240.525L358.268 233.865C358.67 233.487 358.901 232.962 358.909 232.411C358.916 231.859 358.699 231.329 358.308 230.94L339.058 211.897C338.261 211.116 336.982 211.126 336.197 211.919Z" fill="black"/>
<path d="M460.321 334.506L452.021 342.964C451.657 343.338 451.657 343.934 452.021 344.309L472.483 364.565C472.851 364.922 473.436 364.922 473.804 364.565L482.46 356.422C482.647 356.243 482.752 355.996 482.752 355.738C482.752 355.48 482.647 355.233 482.46 355.054L461.641 334.459C461.26 334.118 460.677 334.139 460.321 334.506Z" fill="black"/>
<path d="M374.007 273.905L366.08 281.755C365.902 281.932 365.801 282.173 365.801 282.424C365.801 282.676 365.902 282.917 366.08 283.094L410.205 328.323C410.576 328.685 411.168 328.685 411.538 328.323L420.157 320.192C420.342 320.013 420.446 319.768 420.446 319.511C420.446 319.254 420.342 319.009 420.157 318.83L375.341 273.893C374.967 273.534 374.375 273.539 374.007 273.905Z" fill="black"/>
</g>
<path d="M360.295 187.093L353.895 193.557C353.119 194.346 353.119 195.612 353.895 196.401L360.377 203.049C361.155 203.857 362.441 203.883 363.25 203.106L369.617 197.095C370.421 196.333 370.466 195.068 369.717 194.251L363.235 187.16C362.861 186.746 362.334 186.504 361.776 186.491C361.218 186.478 360.68 186.695 360.287 187.091L360.295 187.093Z" fill="#464A5F"/>
<path d="M372.211 199.021L365.838 205.468C365.062 206.257 365.062 207.523 365.838 208.312L372.32 214.96C372.693 215.349 373.206 215.574 373.745 215.585C374.284 215.596 374.805 215.391 375.193 215.017L381.56 209.017C382.377 208.25 382.422 206.967 381.66 206.144L375.16 199.076C374.784 198.664 374.255 198.425 373.697 198.415C373.139 198.406 372.602 198.626 372.212 199.024L372.211 199.021Z" fill="#464A5F"/>
<path d="M384.723 211.531L378.35 217.984C377.577 218.774 377.577 220.037 378.35 220.828L384.826 227.465C385.604 228.273 386.889 228.298 387.699 227.522L394.066 221.511C394.461 221.144 394.694 220.634 394.713 220.095C394.732 219.556 394.535 219.031 394.166 218.638L387.684 211.547C387.303 211.134 386.767 210.897 386.205 210.894C385.643 210.891 385.105 211.121 384.719 211.53L384.723 211.531Z" fill="#464A5F"/>
<path d="M397.379 224.19L391.012 230.637C390.223 231.432 390.223 232.715 391.012 233.51L397.499 240.158C398.277 240.966 399.562 240.991 400.372 240.215L406.733 234.205C407.543 233.447 407.591 232.179 406.842 231.361L400.326 224.247C399.95 223.835 399.422 223.596 398.864 223.585C398.307 223.574 397.77 223.793 397.378 224.189L397.379 224.19Z" fill="#464A5F"/>
<path d="M410.038 236.848L403.671 243.295C402.879 244.089 402.879 245.374 403.671 246.168L410.158 252.811C410.934 253.621 412.22 253.649 413.031 252.874L419.392 246.864C419.79 246.499 420.025 245.99 420.046 245.45C420.066 244.911 419.87 244.385 419.501 243.991L413.019 236.9C412.641 236.479 412.105 236.233 411.539 236.223C410.973 236.214 410.429 236.44 410.037 236.848H410.038Z" fill="#464A5F"/>
<path d="M423.495 248.726L415.583 256.713C415.222 257.081 415.222 257.671 415.583 258.04L423.553 266.211C423.916 266.581 424.507 266.594 424.886 266.24L432.799 258.77C433.177 258.413 433.198 257.819 432.845 257.437L424.875 248.726C424.695 248.538 424.446 248.431 424.185 248.431C423.925 248.431 423.676 248.538 423.496 248.726H423.495Z" fill="#464A5F"/>
<path d="M436.154 261.368L428.241 269.384C427.88 269.753 427.88 270.342 428.241 270.711L436.211 278.882C436.582 279.244 437.173 279.244 437.544 278.882L445.457 271.412C445.835 271.055 445.856 270.461 445.503 270.079L437.533 261.368C437.353 261.18 437.104 261.073 436.844 261.073C436.583 261.073 436.334 261.18 436.154 261.368Z" fill="#464A5F"/>
<path d="M447.358 272.561L439.445 280.577C439.084 280.945 439.084 281.535 439.445 281.904L447.409 290.098C447.78 290.46 448.371 290.46 448.742 290.098L456.654 282.628C457.032 282.271 457.053 281.677 456.7 281.295L448.736 272.584C448.559 272.393 448.312 272.282 448.051 272.277C447.791 272.273 447.54 272.376 447.357 272.561H447.358Z" fill="#464A5F"/>
<path d="M459.908 285.111L451.995 293.121C451.63 293.49 451.63 294.084 451.995 294.454L459.965 302.619C460.326 302.992 460.921 303.005 461.298 302.648L469.211 295.178C469.586 294.82 469.606 294.228 469.257 293.845L461.293 285.128C461.115 284.935 460.866 284.825 460.604 284.821C460.342 284.818 460.091 284.923 459.908 285.111Z" fill="#464A5F"/>
<path d="M472.061 297.264L464.148 305.274C463.783 305.643 463.783 306.237 464.148 306.607L472.112 314.807C472.483 315.169 473.074 315.169 473.445 314.807L481.357 307.337C481.732 306.979 481.753 306.387 481.403 306.004L473.416 297.293C473.241 297.108 472.999 297.001 472.744 296.995C472.489 296.99 472.243 297.087 472.06 297.264H472.061Z" fill="#464A5F"/>
<path d="M484.213 309.418L476.301 317.463C475.94 317.831 475.94 318.421 476.301 318.79L484.271 326.961C484.642 327.323 485.233 327.323 485.604 326.961L493.516 319.491C493.894 319.134 493.915 318.54 493.562 318.158L485.598 309.447C485.422 309.253 485.174 309.14 484.912 309.134C484.65 309.129 484.397 309.231 484.213 309.418Z" fill="#464A5F"/>
<path d="M496.367 321.571L488.454 329.616C488.092 329.986 488.092 330.579 488.454 330.949L496.401 339.086C496.772 339.448 497.363 339.448 497.734 339.086L505.647 331.616C506.025 331.259 506.046 330.665 505.693 330.283L497.729 321.572C497.55 321.389 497.304 321.286 497.048 321.286C496.792 321.286 496.546 321.389 496.367 321.572V321.571Z" fill="#464A5F"/>
<path d="M348.728 198.67L342.361 205.117C341.585 205.906 341.585 207.172 342.361 207.961L348.849 214.609C349.222 214.999 349.734 215.224 350.274 215.234C350.813 215.245 351.334 215.041 351.722 214.666L358.083 208.666C358.906 207.903 358.955 206.617 358.192 205.793L351.672 198.733C351.297 198.323 350.77 198.084 350.214 198.072C349.659 198.06 349.122 198.276 348.73 198.67H348.728Z" fill="#464A5F"/>
<path d="M323.445 223.948L317.072 230.395C316.28 231.189 316.28 232.474 317.072 233.268L323.56 239.911C324.332 240.705 325.598 240.733 326.404 239.974L332.771 233.963C333.591 233.197 333.636 231.911 332.871 231.09L326.384 224.016C326.011 223.602 325.485 223.36 324.928 223.347C324.371 223.334 323.834 223.551 323.442 223.947L323.445 223.948Z" fill="#464A5F"/>
<path d="M360.645 210.589L354.272 217.036C353.497 217.826 353.497 219.091 354.272 219.88L360.753 226.529C361.126 226.919 361.639 227.144 362.178 227.154C362.717 227.165 363.238 226.961 363.626 226.587L369.987 220.571C370.804 219.804 370.849 218.521 370.087 217.698L363.605 210.613C363.226 210.198 362.69 209.96 362.128 209.955C361.565 209.951 361.026 210.181 360.64 210.59L360.645 210.589Z" fill="#464A5F"/>
<path d="M373.154 223.098L366.788 229.551C366.012 230.34 366.012 231.606 366.788 232.395L373.276 239.043C373.649 239.433 374.162 239.658 374.701 239.668C375.24 239.679 375.761 239.475 376.149 239.1L382.51 233.1C383.333 232.337 383.382 231.051 382.619 230.227L376.103 223.159C375.726 222.749 375.198 222.512 374.641 222.501C374.085 222.49 373.548 222.707 373.155 223.102L373.154 223.098Z" fill="#464A5F"/>
<path d="M385.816 235.757L379.449 242.21C378.673 242.999 378.673 244.265 379.449 245.054L385.936 251.702C386.71 252.494 387.975 252.519 388.78 251.759L395.147 245.759C395.97 244.995 396.019 243.71 395.256 242.886L388.771 235.787C388.392 235.375 387.859 235.138 387.299 235.131C386.739 235.125 386.201 235.349 385.812 235.752L385.816 235.757Z" fill="#464A5F"/>
<path d="M335.769 235.464L329.397 241.911C328.621 242.7 328.621 243.966 329.397 244.755L335.879 251.403C336.252 251.792 336.765 252.017 337.304 252.028C337.843 252.038 338.364 251.834 338.752 251.46L345.119 245.46C345.936 244.693 345.981 243.41 345.219 242.587L338.709 235.513C338.333 235.102 337.805 234.864 337.248 234.856C336.691 234.847 336.155 235.068 335.767 235.467L335.769 235.464Z" fill="#464A5F"/>
<path d="M348.279 247.973L341.912 254.426C341.136 255.215 341.136 256.481 341.912 257.27L348.399 263.918C349.177 264.726 350.463 264.752 351.272 263.975L357.633 257.975C358.456 257.212 358.505 255.926 357.742 255.102L351.26 248.011C350.88 247.592 350.342 247.35 349.777 247.343C349.211 247.337 348.668 247.567 348.278 247.977L348.279 247.973Z" fill="#464A5F"/>
<path d="M360.938 260.632L354.571 267.114C353.795 267.903 353.795 269.169 354.571 269.958L361.059 276.606C361.837 277.414 363.122 277.44 363.932 276.663L370.293 270.652C371.103 269.894 371.151 268.626 370.402 267.808L363.92 260.717C363.547 260.291 363.014 260.04 362.448 260.023C361.882 260.007 361.335 260.227 360.938 260.631V260.632Z" fill="#464A5F"/>
<path d="M398.471 248.416L392.104 254.869C391.328 255.658 391.328 256.924 392.104 257.713L398.591 264.362C398.964 264.751 399.477 264.976 400.016 264.987C400.555 264.997 401.076 264.793 401.464 264.419L407.831 258.408C408.228 258.042 408.461 257.532 408.48 256.992C408.499 256.453 408.301 255.928 407.931 255.535L401.449 248.444C401.069 248.024 400.531 247.782 399.964 247.776C399.398 247.771 398.855 248.003 398.467 248.415L398.471 248.416Z" fill="#464A5F"/>
<path d="M411.129 261.074L404.756 267.527C403.98 268.316 403.98 269.582 404.756 270.371L411.244 277.02C411.617 277.409 412.129 277.634 412.669 277.645C413.208 277.656 413.729 277.451 414.117 277.077L420.484 271.067C421.292 270.307 421.336 269.038 420.584 268.223L414.102 261.132C413.726 260.71 413.191 260.464 412.626 260.453C412.061 260.442 411.517 260.668 411.125 261.075L411.129 261.074Z" fill="#464A5F"/>
<path d="M424.575 272.923L416.663 280.939C416.298 281.308 416.298 281.903 416.663 282.272L424.635 290.434C425.004 290.799 425.599 290.799 425.968 290.434L433.88 282.964C434.255 282.606 434.275 282.014 433.926 281.631L425.962 272.92C425.782 272.73 425.531 272.622 425.27 272.622C425.008 272.622 424.757 272.73 424.577 272.92L424.575 272.923Z" fill="#464A5F"/>
<path d="M435.792 284.128L427.88 292.144C427.515 292.513 427.515 293.108 427.88 293.477L435.85 301.643C436.22 302.007 436.814 302.007 437.183 301.643L445.095 294.173C445.47 293.815 445.49 293.223 445.141 292.84L437.177 284.129C436.997 283.939 436.746 283.831 436.485 283.831C436.223 283.831 435.972 283.939 435.792 284.129V284.128Z" fill="#464A5F"/>
<path d="M448.343 296.678L440.425 304.694C440.064 305.063 440.064 305.652 440.425 306.021L448.389 314.192C448.76 314.554 449.351 314.554 449.722 314.192L457.635 306.722C458.015 306.367 458.038 305.772 457.687 305.389L449.723 296.706C449.547 296.514 449.3 296.402 449.04 296.397C448.779 296.391 448.528 296.492 448.344 296.677L448.343 296.678Z" fill="#464A5F"/>
<path d="M460.494 308.831L452.581 316.847C452.216 317.216 452.216 317.811 452.581 318.18L460.545 326.345C460.918 326.708 461.511 326.708 461.884 326.345L469.791 318.875C470.171 318.52 470.194 317.925 469.843 317.542L461.879 308.831C461.699 308.641 461.448 308.533 461.186 308.533C460.925 308.533 460.674 308.641 460.494 308.831Z" fill="#464A5F"/>
<path d="M361.128 235.13L354.755 241.577C353.979 242.366 353.979 243.632 354.755 244.421L361.242 251.069C361.614 251.46 362.127 251.686 362.667 251.696C363.206 251.707 363.728 251.502 364.115 251.126L370.482 245.126C371.302 244.36 371.347 243.074 370.582 242.253L364.066 235.191C363.692 234.779 363.164 234.539 362.607 234.528C362.051 234.517 361.514 234.737 361.124 235.134L361.128 235.13Z" fill="#464A5F"/>
<path d="M373.786 247.79L367.413 254.237C367.031 254.618 366.817 255.135 366.817 255.674C366.817 256.213 367.031 256.729 367.413 257.11L373.901 263.758C374.273 264.149 374.786 264.375 375.326 264.385C375.865 264.396 376.387 264.191 376.774 263.815L383.141 257.815C383.958 257.048 384.003 255.765 383.241 254.942L376.759 247.857C376.385 247.433 375.85 247.184 375.284 247.172C374.719 247.16 374.174 247.386 373.782 247.794L373.786 247.79Z" fill="#464A5F"/>
<path d="M386.445 260.448L380.072 266.895C379.296 267.684 379.296 268.95 380.072 269.74L386.554 276.388C386.927 276.777 387.44 277.002 387.979 277.013C388.518 277.023 389.039 276.819 389.427 276.445L395.794 270.445C396.611 269.677 396.656 268.394 395.894 267.572L389.412 260.481C389.032 260.064 388.496 259.825 387.933 259.819C387.369 259.814 386.829 260.043 386.441 260.452L386.445 260.448Z" fill="#464A5F"/>
<path d="M399.103 273.102L392.731 279.555C392.349 279.935 392.135 280.452 392.135 280.991C392.135 281.531 392.349 282.047 392.731 282.428L399.213 289.076C399.586 289.465 400.099 289.69 400.638 289.701C401.177 289.711 401.698 289.507 402.086 289.133L408.453 283.133C409.27 282.365 409.315 281.082 408.553 280.26L402.071 273.169C401.695 272.749 401.162 272.505 400.599 272.493C400.036 272.481 399.493 272.703 399.1 273.106L399.103 273.102Z" fill="#464A5F"/>
<path d="M412.56 284.956L404.642 292.972C404.28 293.343 404.28 293.934 404.642 294.305L412.606 302.47C412.967 302.843 413.562 302.856 413.939 302.499L421.851 295.029C422.232 294.672 422.255 294.076 421.903 293.69L413.939 284.979C413.763 284.786 413.515 284.675 413.254 284.67C412.994 284.666 412.742 284.769 412.56 284.956Z" fill="#464A5F"/>
<path d="M423.765 296.161L415.847 304.171C415.485 304.542 415.485 305.133 415.847 305.504L423.811 313.658C424.172 314.031 424.767 314.044 425.144 313.687L433.056 306.217C433.437 305.86 433.46 305.263 433.108 304.878L425.149 296.184C424.973 295.989 424.724 295.876 424.462 295.872C424.199 295.867 423.947 295.972 423.764 296.161H423.765Z" fill="#464A5F"/>
<path d="M436.308 308.705L428.395 316.75C428.033 317.121 428.033 317.713 428.395 318.083L436.359 326.249C436.728 326.614 437.323 326.614 437.692 326.249L445.605 318.779C445.985 318.424 446.008 317.83 445.657 317.446L437.687 308.735C437.511 308.543 437.264 308.431 437.004 308.426C436.743 308.421 436.492 308.522 436.308 308.706V308.705Z" fill="#464A5F"/>
<path d="M448.467 320.864L440.549 328.874C440.187 329.244 440.187 329.836 440.549 330.207L448.513 338.367C448.882 338.732 449.477 338.732 449.846 338.367L457.759 330.897C458.139 330.542 458.162 329.947 457.811 329.564L449.858 320.887C449.683 320.688 449.432 320.573 449.168 320.568C448.903 320.564 448.649 320.671 448.467 320.864Z" fill="#464A5F"/>
<path d="M472.647 320.985L464.734 329.03C464.369 329.399 464.369 329.994 464.734 330.363L472.704 338.528C473.073 338.893 473.668 338.893 474.037 338.528L481.95 331.058C482.325 330.7 482.345 330.108 481.996 329.725L474.026 321.014C473.85 320.822 473.603 320.71 473.343 320.705C473.082 320.699 472.831 320.801 472.647 320.985Z" fill="#464A5F"/>
<path d="M484.8 333.136L476.887 341.181C476.522 341.55 476.522 342.145 476.887 342.514L484.857 350.679C485.226 351.044 485.821 351.044 486.19 350.679L494.103 343.209C494.478 342.851 494.499 342.259 494.149 341.876L486.179 333.193C486.007 332.997 485.763 332.88 485.502 332.869C485.242 332.858 484.988 332.954 484.8 333.135V333.136Z" fill="#464A5F"/>
<path d="M423.231 321.789L415.761 329.334C415.274 329.83 415.274 330.625 415.761 331.121L423.283 338.832C423.77 339.328 424.565 339.343 425.07 338.866L432.54 331.838C433.043 331.359 433.074 330.567 432.609 330.051L425.087 321.822C424.85 321.564 424.517 321.414 424.166 321.407C423.816 321.401 423.478 321.539 423.231 321.788V321.789Z" fill="#464A5F"/>
<path d="M435.384 333.943L427.914 341.488C427.427 341.984 427.427 342.779 427.914 343.275L435.453 351.009C435.946 351.481 436.724 351.481 437.217 351.009L444.687 343.981C445.194 343.504 445.225 342.709 444.756 342.194L437.217 333.977C436.98 333.726 436.653 333.58 436.308 333.574C435.962 333.568 435.629 333.701 435.384 333.943Z" fill="#464A5F"/>
<path d="M447.56 346.096L440.09 353.641C439.603 354.137 439.603 354.932 440.09 355.428L447.612 363.14C448.097 363.639 448.895 363.655 449.399 363.174L456.869 356.146C457.378 355.67 457.409 354.873 456.938 354.359L449.416 346.13C449.18 345.87 448.846 345.719 448.495 345.713C448.144 345.706 447.806 345.845 447.56 346.096Z" fill="#464A5F"/>
<path d="M459.931 358.008L452.018 366.053C451.656 366.424 451.656 367.016 452.018 367.386L459.988 375.552C460.351 375.922 460.943 375.935 461.321 375.581L469.234 368.111C469.612 367.755 469.633 367.16 469.28 366.778L461.316 358.067C461.144 357.869 460.898 357.751 460.636 357.74C460.374 357.729 460.119 357.827 459.931 358.01V358.008Z" fill="#464A5F"/>
<path d="M336.2 210.526L329.408 217.462C329.026 217.843 328.812 218.36 328.812 218.899C328.812 219.438 329.026 219.955 329.408 220.335L348.37 239.107C349.148 239.875 350.394 239.89 351.191 239.141L358.271 232.481C358.673 232.103 358.904 231.579 358.912 231.027C358.919 230.476 358.702 229.945 358.311 229.556L339.061 210.513C338.266 209.729 336.988 209.735 336.2 210.526Z" fill="#464A5F"/>
<path d="M460.321 333.116L452.021 341.592C451.657 341.966 451.657 342.562 452.021 342.937L472.483 363.192C472.851 363.549 473.436 363.549 473.804 363.192L482.46 355.049C482.646 354.87 482.752 354.623 482.752 354.365C482.752 354.107 482.646 353.86 482.46 353.681L461.641 333.086C461.266 332.74 460.684 332.753 460.325 333.115L460.321 333.116Z" fill="#464A5F"/>
<path d="M374.009 272.515L366.082 280.365C365.904 280.542 365.803 280.783 365.803 281.034C365.803 281.286 365.904 281.527 366.082 281.704L410.207 326.933C410.578 327.295 411.169 327.295 411.54 326.933L420.159 318.802C420.344 318.623 420.448 318.378 420.448 318.121C420.448 317.864 420.344 317.618 420.159 317.44L375.338 272.499C374.964 272.144 374.375 272.151 374.009 272.515Z" fill="#464A5F"/>
<path opacity="0.1" d="M342.883 278.031L308.044 312.641C306.034 314.641 306.009 317.885 307.987 319.916L372.425 386.09C373.385 387.076 374.698 387.639 376.074 387.655C377.45 387.67 378.776 387.136 379.757 386.171L415.631 350.883C416.612 349.916 417.167 348.598 417.172 347.22C417.178 345.843 416.633 344.52 415.66 343.545L350.187 278.032C348.169 276.019 344.902 276.019 342.883 278.031Z" fill="black"/>
<path d="M342.883 276.612L308.044 311.25C306.034 313.249 306.009 316.494 307.987 318.525L372.425 384.699C373.385 385.685 374.698 386.248 376.074 386.264C377.45 386.278 378.776 385.745 379.757 384.78L415.63 349.487C416.611 348.52 417.166 347.201 417.171 345.824C417.177 344.446 416.632 343.124 415.659 342.149L350.186 276.647C348.177 274.625 344.911 274.609 342.883 276.612Z" fill="#939498"/>
<path d="M376.344 94.9941L367.524 156.663L530.958 319.571L539.279 258.443C539.734 255.096 538.596 251.729 536.205 249.343L379.97 93.7721C379.396 93.2005 378.548 93.0023 377.78 93.2603C377.013 93.5182 376.456 94.1879 376.344 94.9901V94.9941Z" fill="#584DFC"/>
<path opacity="0.1" d="M169.561 393.917C176.896 393.917 182.841 393.101 182.841 392.095C182.841 391.089 176.896 390.273 169.561 390.273C162.227 390.273 156.281 391.089 156.281 392.095C156.281 393.101 162.227 393.917 169.561 393.917Z" fill="#584DFC"/>
<path opacity="0.1" d="M118.685 399.077C126.019 399.077 131.965 398.261 131.965 397.255C131.965 396.249 126.019 395.433 118.685 395.433C111.35 395.433 105.405 396.249 105.405 397.255C105.405 398.261 111.35 399.077 118.685 399.077Z" fill="#584DFC"/>
<path opacity="0.1" d="M58.7668 392.095C66.1012 392.095 72.0468 391.279 72.0468 390.273C72.0468 389.267 66.1012 388.451 58.7668 388.451C51.4325 388.451 45.4868 389.267 45.4868 390.273C45.4868 391.279 51.4325 392.095 58.7668 392.095Z" fill="#584DFC"/>
<path opacity="0.1" d="M139.049 413.241C144.263 413.241 148.49 412.659 148.49 411.942C148.49 411.225 144.263 410.643 139.049 410.643C133.835 410.643 129.608 411.225 129.608 411.942C129.608 412.659 133.835 413.241 139.049 413.241Z" fill="#584DFC"/>
<path opacity="0.1" d="M86.2511 411.943C91.4652 411.943 95.6921 411.362 95.6921 410.644C95.6921 409.927 91.4652 409.345 86.2511 409.345C81.0369 409.345 76.8101 409.927 76.8101 410.644C76.8101 411.362 81.0369 411.943 86.2511 411.943Z" fill="#584DFC"/>
<path d="M118.409 396.847C118.409 396.847 137.033 335.787 115.49 311.36C99.4008 293.06 81.0898 295.271 72.8898 297.517C68.6014 298.659 65.0302 301.625 63.1208 305.631C60.2478 311.814 60.7768 321.841 80.9918 333.546C114.849 353.146 116.952 380.033 116.952 380.033L118.409 396.847Z" fill="#584DFC"/>
<path d="M75.793 306.148C75.793 306.148 130.704 323.312 118.393 396.848" stroke="#2A2E71"/>
<path d="M107.874 312.302C107.874 312.302 100.318 317.393 102.702 325.053" stroke="#2A2E71"/>
<path d="M81.3149 316.836C81.3149 316.836 85.9149 312.136 91.5609 314.727" stroke="#2A2E71"/>
<path d="M103.019 340.482C103.019 340.482 111.133 336.362 113.236 341.522" stroke="#2A2E71"/>
<path d="M123.102 349.069C123.102 349.069 117.002 348.586 116.896 351.5" stroke="#2A2E71"/>
<path d="M119.16 397.335C119.16 397.335 97.3239 352.96 91.3479 353.928C88.5039 354.388 87.1929 357.186 86.6019 360.002C85.8681 363.638 86.2818 367.412 87.7859 370.802C90.8829 377.907 99.1979 391.394 119.16 397.335Z" fill="#584DFC"/>
<path d="M91.5151 362.346C91.5151 362.346 114.408 395.553 118.833 397.007" stroke="#2A2E71"/>
<path d="M89.4058 367.529H94.7498" stroke="#2A2E71"/>
<path d="M95.8071 379.677L104.185 380.033" stroke="#2A2E71"/>
<path d="M100.904 369.96L99.9961 374.321" stroke="#2A2E71"/>
<path d="M109.817 383.24L109.65 387.205" stroke="#2A2E71"/>
<path d="M118.506 397.335C118.506 397.335 140.342 352.957 146.312 353.928C149.185 354.388 150.472 357.186 151.064 360.002C151.799 363.638 151.383 367.413 149.874 370.802C146.783 377.907 138.466 391.394 118.506 397.335Z" fill="#584DFC"/>
<path d="M146.151 362.346C146.151 362.346 123.251 395.553 118.828 397.007" stroke="#2A2E71"/>
<path d="M148.254 367.529H142.91" stroke="#2A2E71"/>
<path d="M141.853 379.677L133.475 380.033" stroke="#2A2E71"/>
<path d="M136.756 369.96L137.664 374.321" stroke="#2A2E71"/>
<path d="M127.85 383.24L128.011 387.205" stroke="#2A2E71"/>
<path d="M81.0513 407.696C80.4565 407.213 80.0236 406.559 79.8102 405.823C79.6131 405.062 79.9749 404.267 80.6782 403.915C81.5326 403.755 82.4079 404.059 82.9782 404.715C83.5403 405.371 84.3503 405.762 85.2132 405.795C84.3275 404.995 83.9279 403.788 84.1613 402.617C84.1962 402.378 84.2977 402.153 84.4543 401.968C84.8963 401.497 85.6952 401.698 86.2242 402.068C87.9132 403.251 88.3792 405.516 88.3902 407.601C88.4848 406.838 88.4945 406.066 88.4192 405.301C88.3545 404.529 88.6748 403.774 89.2752 403.284C89.6753 403.073 90.1233 402.97 90.5752 402.984C91.3316 402.865 92.1027 403.074 92.6952 403.559C93.2737 404.341 93.2381 405.417 92.6092 406.159C91.9865 406.867 91.2459 407.462 90.4202 407.917C89.7932 408.291 89.2594 408.803 88.8592 409.414C88.813 409.498 88.7745 409.587 88.7443 409.678H83.9982C82.9314 409.153 81.9402 408.486 81.0513 407.696Z" fill="#584DFC"/>
<path d="M164.176 389.825C163.581 389.341 163.146 388.688 162.929 387.952C162.734 387.191 163.095 386.397 163.797 386.044C164.651 385.883 165.527 386.188 166.097 386.844C166.656 387.5 167.465 387.89 168.327 387.918C167.443 387.117 167.044 385.911 167.275 384.74C167.314 384.504 167.415 384.282 167.568 384.097C168.01 383.62 168.809 383.827 169.344 384.197C171.028 385.381 171.499 387.645 171.505 389.725C171.601 388.962 171.613 388.191 171.539 387.425C171.465 386.651 171.787 385.893 172.395 385.408C172.794 385.193 173.242 385.09 173.695 385.108C174.449 384.992 175.218 385.201 175.81 385.683C176.384 386.465 176.351 387.538 175.73 388.283C175.101 388.98 174.357 389.563 173.53 390.007C172.906 390.385 172.372 390.895 171.967 391.501C171.918 391.586 171.88 391.677 171.852 391.771H167.1C166.04 391.253 165.054 390.596 164.169 389.817L164.176 389.825Z" fill="#584DFC"/>
<path d="M136.469 407.696C135.875 407.213 135.442 406.559 135.228 405.823C135.031 405.062 135.393 404.267 136.096 403.915C136.951 403.755 137.826 404.059 138.396 404.715C138.958 405.371 139.768 405.762 140.631 405.795C139.746 404.995 139.347 403.788 139.58 402.617C139.615 402.378 139.717 402.153 139.873 401.968C140.315 401.497 141.114 401.698 141.643 402.068C143.327 403.251 143.798 405.516 143.809 407.601C143.904 406.838 143.913 406.066 143.838 405.301C143.774 404.532 144.092 403.78 144.688 403.29C145.088 403.079 145.536 402.976 145.988 402.99C146.745 402.871 147.516 403.08 148.108 403.565C148.684 404.347 148.649 405.423 148.022 406.165C147.399 406.873 146.659 407.468 145.833 407.923C145.204 408.295 144.667 408.806 144.264 409.417C144.218 409.501 144.18 409.59 144.149 409.681H139.403C138.341 409.154 137.354 408.486 136.469 407.696Z" fill="#584DFC"/>
<path d="M57.9042 371.569C57.9042 371.569 56.1232 373.896 58.7262 377.407C61.3292 380.918 63.4722 383.889 62.6052 386.078C62.6052 386.078 58.6802 379.55 55.4852 379.464C52.2902 379.378 54.3922 375.489 57.9042 371.569Z" fill="#584DFC"/>
<path opacity="0.1" d="M57.9042 371.569C57.7501 371.794 57.6282 372.04 57.5422 372.299C54.4222 375.959 52.7612 379.378 55.7612 379.465C58.5482 379.54 61.8982 384.533 62.6972 385.786C62.6725 385.883 62.6418 385.979 62.6052 386.073C62.6052 386.073 58.6802 379.545 55.4852 379.459C52.2902 379.373 54.3922 375.489 57.9042 371.569Z" fill="black"/>
<path d="M54.5952 374.534C54.5952 375.356 54.6872 376.017 54.8022 376.017C54.9172 376.017 55.0092 375.356 55.0092 374.534C55.0092 373.712 54.8942 374.103 54.7792 374.103C54.6642 374.103 54.5952 373.713 54.5952 374.534Z" fill="#FFD037"/>
<path d="M53.4632 375.511C54.1812 375.902 54.8082 376.143 54.8632 376.04C54.9182 375.937 54.3802 375.546 53.6632 375.149C52.9462 374.752 53.2262 375.049 53.1752 375.149C53.1242 375.249 52.7462 375.143 53.4632 375.511Z" fill="#FFD037"/>
<path d="M67.3061 371.569C67.3061 371.569 69.0821 373.896 66.4841 377.407C63.8861 380.918 61.7381 383.889 62.6051 386.078C62.6051 386.078 66.5301 379.55 69.7251 379.464C72.9201 379.378 70.8171 375.489 67.3061 371.569Z" fill="#584DFC"/>
<path opacity="0.1" d="M67.3058 371.569C67.4599 371.794 67.5817 372.04 67.6678 372.299C70.7818 375.959 72.4428 379.378 69.4488 379.465C66.6558 379.54 63.3118 384.533 62.5078 385.786C62.5351 385.884 62.5685 385.979 62.6078 386.073C62.6078 386.073 66.5328 379.545 69.7278 379.459C72.9228 379.373 70.8168 375.489 67.3058 371.569Z" fill="black"/>
<path d="M70.6228 374.534C70.6228 375.356 70.5308 376.017 70.4228 376.017C70.3148 376.017 70.2158 375.356 70.2158 374.534C70.2158 373.712 70.3308 374.103 70.4458 374.103C70.5608 374.103 70.6228 373.713 70.6228 374.534Z" fill="#FFD037"/>
<path d="M71.771 375.511C71.053 375.902 70.426 376.143 70.371 376.04C70.316 375.937 70.859 375.546 71.578 375.149C72.297 374.752 72.015 375.049 72.066 375.149C72.117 375.249 72.466 375.143 71.771 375.511Z" fill="#FFD037"/>
<path d="M70.047 385.774C70.047 385.774 65.071 385.619 63.571 384.556C62.071 383.493 55.917 382.211 55.526 383.924C55.135 385.637 48.056 392.44 53.67 392.486C59.284 392.532 66.72 391.613 68.219 390.699C69.718 389.785 70.047 385.774 70.047 385.774Z" fill="#A8A8A8"/>
<path opacity="0.2" d="M53.5838 391.888C59.2038 391.934 66.6388 391.014 68.1328 390.101C69.2818 389.401 69.7248 386.918 69.8568 385.768H70.0468C70.0468 385.768 69.7308 389.79 68.2368 390.693C66.7428 391.596 59.3018 392.526 53.6878 392.48C52.0678 392.48 51.5038 391.905 51.5328 391.038C51.7618 391.554 52.3768 391.878 53.5838 391.888Z" fill="black"/>
<path d="M99.0958 191.965C99.0038 194.378 101.073 197.585 101.073 197.585C101.705 199.108 109.457 206.164 109.457 206.164L115.203 210.002C114.042 210.858 112.825 211.636 111.56 212.329C108.76 213.76 107.233 218.495 107.233 218.495C107.233 218.495 102.992 228.683 111.56 230.114L111.721 230.143L112.491 230.976C114.056 232.757 115.731 234.438 117.507 236.01C118.949 236.993 123.368 244.41 123.368 244.41C123.368 244.41 128.051 252.099 134.286 252.455C140.521 252.811 140.503 245.663 140.032 245.215C139.844 244.916 139.714 244.584 139.647 244.238C141.135 246.638 143.164 249.783 143.819 250.22C144.899 250.933 148.419 256.541 148.419 256.541C148.419 256.541 152.838 266.641 153.556 267.712C154.274 268.783 155.538 274.147 155.538 274.147C155.538 274.147 158.066 281.56 159.238 282.547C160.41 283.534 161.038 287.104 161.038 287.104C161.038 287.104 164.733 292.465 165.365 293.356C166.104 294.656 166.766 295.999 167.347 297.378C167.347 297.378 169.33 300.596 169.33 301.849C169.33 303.102 173.479 305.239 173.479 305.239C173.479 305.239 176.456 308.727 178.168 309.353C179.88 309.979 181.501 314.088 181.768 313.818C181.927 313.743 182.103 313.709 182.279 313.718L182.979 314.418C185.714 317.142 191.179 322.572 192.579 323.83C194.479 325.554 198.802 325.795 202.405 325.083C204.255 324.715 206.505 322.963 208.26 321.342C209.061 320.593 209.521 319.549 209.535 318.452C209.547 317.355 209.112 316.301 208.329 315.533C206.605 313.872 204.611 312.051 203.729 311.769C202.108 311.229 197.512 308.017 195.351 305.333C193.949 303.844 192.306 302.602 190.49 301.661L190.283 301.54C190.024 300.556 189.849 299.553 189.76 298.54C189.76 298.54 192.737 291.84 191.11 291.484C189.483 291.128 183.358 280.491 183.358 280.491C183.272 272.446 175.888 265.654 175.888 265.654C175.888 265.654 172.193 256.897 171.113 255.023C170.456 254.051 170.456 252.777 171.113 251.805C170.19 251.122 169.371 250.309 168.682 249.392C168.326 248.592 166.608 242.492 166.608 242.492C166.608 242.492 164.534 238.826 164.442 237.131C164.35 235.436 160.31 230.707 160.31 230.707C160.31 230.707 158.672 222.743 156.862 221.307C156.512 221.031 156.562 219.98 156.862 218.468L156.948 218.376L157.224 218.106L157.304 218.026C158.132 217.209 158.911 216.343 159.637 215.434L159.671 215.388C159.786 215.244 159.895 215.106 159.999 214.963C162.614 211.389 164.234 202.896 164.234 202.896C164.234 202.896 164.751 202.655 165.424 202.287C166.369 201.815 167.245 201.214 168.024 200.5C168.061 200.458 168.092 200.412 168.116 200.362C168.119 200.347 168.119 200.331 168.116 200.316C168.133 200.281 168.149 200.244 168.162 200.207C168.164 200.186 168.164 200.165 168.162 200.144C168.165 200.102 168.165 200.06 168.162 200.018V199.748C168.166 199.67 168.156 199.592 168.133 199.518C168.132 199.508 168.132 199.498 168.133 199.489C168.125 199.416 168.11 199.345 168.087 199.276V199.207C168.078 199.138 168.059 199.07 168.03 199.007C168.032 198.982 168.032 198.957 168.03 198.932L167.961 198.719C167.959 198.702 167.959 198.684 167.961 198.667C167.852 198.38 167.72 198.092 167.57 197.782L167.415 197.489C167.148 196.969 166.853 196.465 166.53 195.978L166.484 195.909C167.116 194.128 168.34 190.99 169.478 189.864C171.098 188.255 168.578 179.676 168.578 179.676C168.578 179.676 168.038 173.602 167.314 171.815C166.59 170.028 167.314 169.769 166.739 168.241C166.039 166.517 165.539 166.632 166.439 162.702C166.778 161.219 167.301 159.588 167.772 158.065L168.347 158.594C171.68 161.737 176.915 165.828 176.915 165.828C176.915 165.828 187.189 175.12 188.091 175.39C188.993 175.66 191.7 184.774 191.7 184.774C191.7 184.774 191.068 199.874 199.36 200.501C202.882 200.765 204.376 198.042 204.917 194.829C205.726 189.781 204.235 184.636 200.854 180.802L195.889 175.159L191.47 167.298C188.657 162.86 186.287 158.156 184.396 153.254C182.388 148.451 179.442 144.096 175.731 140.446L175.375 140.096L175.835 139.671C175.835 139.671 175.111 133.771 174.571 133.063C174.031 132.355 172.048 128.236 172.048 127.317C172.048 126.398 170.784 126.248 170.066 125.174C170.066 125.174 168.802 122.674 167.63 122.301C167.415 122.218 167.22 122.093 167.055 121.933C164.999 120.116 162.419 118.999 159.688 118.744L158.97 118.675C157.372 118.603 155.772 118.626 154.178 118.744H154.138C152.958 118.256 151.9 117.514 151.038 116.572C149.511 115.206 147.818 114.038 145.999 113.096C144.177 111.997 142.048 111.517 139.931 111.728C138.299 111.992 136.84 112.877 135.248 113.343C132.984 113.981 130.203 113.849 128.778 115.705C128.094 116.59 127.899 117.768 127.261 118.682C126.353 119.982 124.687 120.582 123.75 121.865C123.123 122.797 122.837 123.918 122.94 125.037C122.909 125.942 123.017 126.847 123.262 127.72C123.501 128.47 123.676 129.24 123.785 130.02C123.772 130.147 123.751 130.274 123.722 130.399C123.596 130.974 123.303 131.456 123.188 132.014C123.129 132.317 123.12 132.627 123.159 132.933C122.987 134.306 123.872 135.611 124.469 136.886C124.93 137.882 125.234 138.945 125.369 140.035C123.874 140.477 122.415 141.036 121.008 141.707C119.108 142.522 117.441 143.797 116.158 145.419C114.399 147.892 112.198 150.017 109.665 151.688C108.885 153.607 108.223 155.572 107.683 157.572C107.143 159.872 106.603 163.646 104.983 165.617C103.363 167.588 102.616 173.438 102.616 173.438C102.616 173.438 100.45 176.92 100.45 177.638C100.314 179.302 100.314 180.974 100.45 182.638C100.609 182.945 100.821 183.221 101.076 183.454L100.915 184.029C100.1 186.622 99.4916 189.276 99.0958 191.965ZM149.916 151.713C149.872 151.907 149.819 152.099 149.755 152.288C149.755 152.104 149.784 151.926 149.795 151.742L149.916 151.713ZM129.378 228.091L129.091 227.827L128.953 227.701C128.963 227.627 128.981 227.554 129.005 227.483L129.378 228.091ZM114.438 191.516L114.553 191.303L114.978 190.533L118.426 187.717L118.868 188.117C118.868 188.117 118.506 191.869 117.61 191.691C117.403 191.651 117.31 192.513 117.288 193.863C115.662 192.472 114.421 191.513 114.421 191.513L114.438 191.516Z" fill="url(#paint0_linear_105_28)"/>
<path d="M145.553 121.912C145.553 121.912 156.281 120.947 158.833 121.212L159.533 121.275C162.195 121.546 164.701 122.659 166.687 124.453C166.853 124.611 167.048 124.734 167.262 124.815C168.411 125.165 169.635 127.631 169.635 127.631C169.635 127.631 166.911 149.174 166.911 149.438C166.911 149.702 161.28 159.459 161.28 159.459L155.827 161.574L146.42 162.901L146.156 158.844C146.156 158.844 150.684 156.362 150.178 151.23C149.672 146.098 145.553 121.912 145.553 121.912Z" fill="#464353"/>
<path d="M150.829 147.5C150.829 147.5 148.529 157.878 150.829 161.216C153.129 164.554 128.143 155.769 128.143 155.769L123.543 147.5C123.543 147.5 125.267 146.276 127.209 144.7C129.944 142.5 133.22 139.615 133.22 138.379C133.251 136.243 150.829 147.5 150.829 147.5Z" fill="#ECB4B6"/>
<path opacity="0.1" d="M150.829 147.5C150.829 147.5 148.529 157.878 150.829 161.216C153.129 164.554 128.143 155.769 128.143 155.769L123.543 147.5C123.543 147.5 125.267 146.276 127.209 144.7C129.944 142.5 133.22 139.615 133.22 138.379C133.251 136.243 150.829 147.5 150.829 147.5Z" fill="black"/>
<path opacity="0.1" d="M145.553 154.378C154.004 154.378 160.855 147.527 160.855 139.076C160.855 130.625 154.004 123.774 145.553 123.774C137.102 123.774 130.251 130.625 130.251 139.076C130.251 147.527 137.102 154.378 145.553 154.378Z" fill="black"/>
<path d="M145.553 153.671C154.004 153.671 160.855 146.82 160.855 138.369C160.855 129.918 154.004 123.067 145.553 123.067C137.102 123.067 130.251 129.918 130.251 138.369C130.251 146.82 137.102 153.671 145.553 153.671Z" fill="#ECB4B6"/>
<path d="M165.336 157.361C165.393 157.936 166.485 159.125 167.968 160.533C171.22 163.625 176.329 167.653 176.329 167.653C176.329 167.653 186.356 176.795 187.247 177.06C188.138 177.325 190.764 186.294 190.764 186.294C190.764 186.294 190.149 201.154 198.234 201.769C201.682 202.028 203.134 199.356 203.658 196.189C204.446 191.233 202.996 186.182 199.699 182.398L194.899 176.807L190.589 169.067C187.826 164.709 185.499 160.09 183.642 155.276C181.697 150.543 178.828 146.245 175.201 142.634C174.301 141.734 173.719 141.261 173.719 141.261L169.697 142.491C169.697 142.491 165.164 155.591 165.336 157.361Z" fill="#ECB4B6"/>
<path d="M180.724 312.297L182.264 313.842C184.93 316.526 190.264 321.887 191.63 323.105C193.475 324.777 197.698 325.041 201.215 324.335C203.015 323.979 205.237 322.249 206.927 320.657C207.717 319.92 208.17 318.891 208.182 317.811C208.194 316.731 207.763 315.693 206.99 314.939C205.324 313.307 203.37 311.491 202.531 311.233C200.951 310.704 196.463 307.544 194.354 304.912C192.994 303.445 191.393 302.223 189.619 301.298C188.102 300.442 186.878 299.898 186.878 299.898L180.724 312.297Z" fill="#C17174"/>
<path opacity="0.1" d="M182.896 312.296C182.896 312.296 183.407 312.819 184.196 313.612C186.466 315.912 190.996 320.439 192.166 321.49C193.735 322.909 197.338 323.133 200.314 322.536C201.932 322.011 203.405 321.114 204.614 319.916C205.448 319.187 205.938 318.142 205.965 317.034C205.992 315.927 205.555 314.859 204.758 314.089C203.782 313.036 202.662 312.127 201.431 311.389C198.779 310.074 196.415 308.244 194.478 306.005C193.324 304.757 191.964 303.717 190.456 302.931C189.169 302.201 188.129 301.742 188.129 301.742L182.896 312.296Z" fill="black"/>
<path d="M110.841 228.754C110.841 228.754 112.048 230.116 113.513 231.713C115.036 233.466 116.669 235.121 118.403 236.666C119.811 237.637 124.12 244.935 124.12 244.935C124.12 244.935 128.72 252.497 134.762 252.848C140.804 253.199 140.83 246.165 140.388 245.728C139.946 245.291 139.336 241.328 138.457 238.428C137.79 236.228 132.337 231.015 129.728 228.608C128.889 227.832 128.343 227.35 128.343 227.35L110.841 228.754Z" fill="#C17174"/>
<path opacity="0.1" d="M112.134 229.763C112.134 229.763 113.226 231.004 114.565 232.463C115.956 234.06 117.445 235.568 119.024 236.98C120.311 237.865 124.236 244.519 124.236 244.519C124.236 244.519 128.408 251.419 133.941 251.73C139.474 252.041 139.469 245.639 139.072 245.237C138.675 244.835 138.107 241.215 137.308 238.583C136.699 236.583 131.728 231.825 129.349 229.63C128.585 228.923 128.085 228.481 128.085 228.481L112.134 229.763Z" fill="black"/>
<path opacity="0.1" d="M110.841 228.754C110.841 228.754 112.048 230.116 113.513 231.713C121.236 232.862 124.827 231.569 124.827 231.569C126.256 230.917 127.725 230.358 129.227 229.897C129.427 229.897 129.572 229.374 129.733 228.604C128.894 227.828 128.348 227.346 128.348 227.346L110.841 228.754Z" fill="black"/>
<path d="M120.144 208.002C117.753 209.973 115.22 211.765 112.565 213.363C109.824 214.777 108.359 219.42 108.359 219.42C108.359 219.42 104.227 229.447 112.577 230.849C120.927 232.251 124.805 230.849 124.805 230.849C126.234 230.199 127.704 229.642 129.205 229.183C129.998 229.097 129.992 221.529 132.894 219.242C135.796 216.955 142.479 211.772 142.479 211.772L120.144 208.002Z" fill="#5E5A6B"/>
<path opacity="0.1" d="M120.144 208.002C117.753 209.973 115.22 211.765 112.565 213.363C109.824 214.777 108.359 219.42 108.359 219.42C108.359 219.42 104.227 229.447 112.577 230.849C120.927 232.251 124.805 230.849 124.805 230.849C126.234 230.199 127.704 229.642 129.205 229.183C129.998 229.097 129.992 221.529 132.894 219.242C135.796 216.955 142.479 211.772 142.479 211.772L120.144 208.002Z" fill="black"/>
<path d="M165.328 195.952C165.328 195.952 168.776 200.647 167.707 201.773C166.591 202.724 165.35 203.516 164.018 204.129C164.018 204.129 162.432 212.484 159.881 216.001C157.652 218.744 155.117 221.223 152.325 223.391L155.836 203.779L165.328 195.952Z" fill="#5E5A6B"/>
<path opacity="0.1" d="M152.333 223.392C153.898 222.156 155.398 220.84 156.827 219.45C157.938 218.386 158.961 217.233 159.884 216.002C162.435 212.485 164.021 204.13 164.021 204.13C165.355 203.521 166.597 202.728 167.71 201.774C168.354 201.09 167.336 199.096 166.44 197.631C165.865 196.677 165.34 195.953 165.34 195.953L160.358 200.053L155.841 203.776L154.514 211.376L152.333 223.392Z" fill="black"/>
<path opacity="0.1" d="M180.725 312.296L182.265 313.842C183.236 313.842 184.684 313.963 184.684 313.963C184.684 313.963 191.804 305.43 190.66 303.936C190.143 303.13 189.789 302.23 189.62 301.287C188.103 300.431 186.879 299.887 186.879 299.887L180.725 312.296Z" fill="black"/>
<path d="M126.384 222.247C126.384 223.741 138.342 242.031 138.342 242.031C138.342 242.031 143.002 249.944 144.06 250.65C145.118 251.356 148.542 256.89 148.542 256.89C148.542 256.89 152.852 266.825 153.559 267.883C154.266 268.941 155.49 274.204 155.49 274.204C155.49 274.204 157.955 281.504 159.099 282.467C160.243 283.43 160.857 286.955 160.857 286.955C160.857 286.955 164.457 292.23 165.075 293.109C165.796 294.388 166.443 295.708 167.011 297.062C167.011 297.062 168.948 300.228 168.948 301.462C168.948 302.696 172.97 304.801 172.97 304.801C172.97 304.801 175.843 308.249 177.538 308.823C179.233 309.397 180.796 313.483 181.055 313.223C181.314 312.963 184.313 313.223 184.313 313.223C184.313 313.223 191.433 304.696 190.289 303.202C189.145 301.708 188.881 298.186 188.881 298.186C188.881 298.186 191.754 291.595 190.203 291.245C188.652 290.895 182.67 280.459 182.67 280.459C182.584 272.546 175.37 265.859 175.37 265.859C175.37 265.859 171.761 257.24 170.71 255.395C170.067 254.438 170.067 253.186 170.71 252.229C169.808 251.557 169.007 250.759 168.334 249.858C167.984 249.065 166.311 243.089 166.311 243.089C166.311 243.089 164.288 239.48 164.196 237.808C164.104 236.136 160.174 231.487 160.174 231.487C160.174 231.487 158.574 223.655 156.818 222.247C156.473 221.971 156.531 220.947 156.818 219.447C157.628 215.511 160.208 208.397 161.99 203.737C163.007 201.071 163.76 199.203 163.76 199.203L160.36 200.053L131.399 207.293C131.399 207.293 129.83 211.505 128.451 215.476C127.592 217.678 126.901 219.941 126.384 222.247Z" fill="#5E5A6B"/>
<path opacity="0.1" d="M182.575 294.265C182.575 294.265 191.631 290.748 187.175 295.231C182.719 299.714 174.165 299.454 174.165 299.454L182.575 294.265Z" fill="black"/>
<path opacity="0.1" d="M167.095 276.308C167.095 276.308 161.995 279.124 162.963 281.847C163.931 284.57 167.095 276.308 167.095 276.308Z" fill="black"/>
<path opacity="0.1" d="M161.982 254.518C160.976 256.319 159.023 257.378 156.965 257.238C153.293 257.155 161.982 254.518 161.982 254.518Z" fill="black"/>
<path opacity="0.1" d="M114.166 215.398C114.166 215.398 116.102 221.38 114.166 221.817C112.23 222.254 114.166 215.398 114.166 215.398Z" fill="black"/>
<path opacity="0.1" d="M165.336 157.36C165.394 157.935 166.485 159.124 167.968 160.532C168.807 157.832 169.589 155.36 169.117 154.544C168.417 153.314 171.163 150.677 170.669 148.918C170.29 147.573 173.6 144.166 175.174 142.643C174.274 141.743 173.692 141.27 173.692 141.27L169.67 142.5C169.67 142.5 165.164 155.591 165.336 157.36Z" fill="black"/>
<path opacity="0.1" d="M128.447 215.478C131.786 215.294 139.572 212.878 139.572 212.878C144.58 212.709 149.571 212.206 154.512 211.373C157.385 210.798 159.477 209.973 159.477 208.891C159.477 207.437 160.666 205.491 162.017 203.719C162.94 202.55 163.926 201.431 164.971 200.369C165.52 199.807 165.938 199.13 166.195 198.387C166.275 198.151 166.373 197.887 166.471 197.611C165.896 196.657 165.371 195.933 165.371 195.933L160.389 200.033L131.428 207.273C131.428 207.273 129.807 211.505 128.447 215.478Z" fill="black"/>
<path d="M118.818 209.761C118.818 209.761 125.318 213.628 127.259 214.329C129.2 215.03 139.568 211.824 139.568 211.824C139.568 211.824 159.444 211.169 159.444 207.802C159.444 205.222 163.213 201.073 164.937 199.315C165.487 198.751 165.905 198.072 166.161 197.327C166.761 195.603 167.983 192.403 169.115 191.27C170.701 189.69 168.236 181.249 168.236 181.249C168.236 181.249 167.707 175.267 167.006 173.509C166.305 171.751 167.006 171.492 166.431 169.992C165.753 168.308 165.282 168.406 166.138 164.539C166.994 160.672 169.126 155.747 168.438 154.512C167.75 153.277 170.484 150.645 169.989 148.887C169.494 147.129 175.289 141.854 175.289 141.854C175.289 141.854 174.565 136.102 174.042 135.366C173.519 134.63 171.583 130.62 171.583 129.74C171.583 128.86 170.348 128.683 169.646 127.631C168.944 126.579 160.826 154.891 160.826 154.891L148.994 157.557L148.339 157.701C148.339 157.701 141.61 158.017 137.239 155.592C137.239 155.592 129.694 154.362 127.229 141.876C125.344 142.35 123.511 143.012 121.759 143.853C119.904 144.657 118.278 145.912 117.03 147.502C115.324 149.933 113.181 152.026 110.709 153.673C109.949 155.562 109.303 157.494 108.773 159.459C108.25 161.759 107.721 165.441 106.135 167.377C104.549 169.313 103.835 175.111 103.835 175.111L119.689 189.54C119.689 189.54 119.338 193.235 118.459 193.057C117.58 192.879 118.818 209.761 118.818 209.761Z" fill="#464353"/>
<path opacity="0.1" d="M121.793 144.552L130.251 162.187C130.251 162.187 133.768 164.487 135.003 163.239C136.238 161.991 140.893 162.009 140.893 162.009L141.508 163.239L150.42 161.139L149.02 158.266L148.365 158.415C148.365 158.415 141.636 158.731 137.265 156.306C137.265 156.306 129.72 155.071 127.255 142.584C125.373 143.055 123.543 143.714 121.793 144.552Z" fill="black"/>
<path d="M121.793 143.852L130.251 161.481C130.251 161.481 133.768 163.781 135.003 162.538C136.238 161.295 140.893 161.308 140.893 161.308L141.508 162.538L150.42 160.429L149.02 157.556L148.365 157.7C148.365 157.7 141.636 158.016 137.265 155.591C137.265 155.591 129.72 154.361 127.255 141.875C125.373 142.349 123.543 143.011 121.793 143.852Z" fill="#464353"/>
<path opacity="0.1" d="M125.505 195.16C125.505 195.16 144.169 201.033 145.554 201.774C146.939 202.515 125.591 197.18 125.505 195.16Z" fill="black"/>
<path opacity="0.1" d="M137.273 204.13C137.273 204.13 132.366 206.859 130.607 205.888C128.848 204.917 137.273 204.13 137.273 204.13Z" fill="black"/>
<path opacity="0.1" d="M152.678 171.514C152.678 171.514 157.401 196.746 150.42 204.13L152.678 171.514Z" fill="black"/>
<path opacity="0.1" d="M160.442 133.525C162.249 131.578 162.33 128.592 160.632 126.549C159.947 125.935 159.309 125.271 158.724 124.561C158.468 124.02 158.156 123.508 157.793 123.033C156.885 122.102 155.357 122.349 154.11 121.97C152.957 121.496 151.925 120.767 151.093 119.838C149.608 118.485 147.957 117.326 146.18 116.39C144.4 115.319 142.324 114.847 140.256 115.045C138.664 115.309 137.245 116.194 135.688 116.637C133.481 117.263 130.763 117.137 129.367 118.964C128.706 119.832 128.517 120.987 127.89 121.889C127.005 123.165 125.379 123.762 124.442 125.021C123.413 126.44 123.523 128.388 123.965 130.083C124.383 131.139 124.537 132.281 124.413 133.41C124.287 133.95 124.005 134.45 123.896 134.996C123.609 136.421 124.528 137.771 125.143 139.096C125.805 140.526 126.131 142.088 126.097 143.664C126.054 144.017 126.104 144.376 126.241 144.704C126.416 144.968 126.658 145.182 126.941 145.325L129.584 146.991C129.708 147.079 129.849 147.142 129.998 147.175C130.515 147.255 130.831 146.664 131.147 146.267C132.032 145.21 133.716 145.29 134.962 145.888C136.208 146.486 137.232 147.468 138.484 148.037C141.42 149.376 144.805 148.186 147.984 147.572C149.072 147.415 150.146 147.173 151.196 146.848C152.186 146.446 153.13 145.94 154.012 145.337C154.907 144.833 155.719 144.196 156.42 143.446C157.192 142.608 157.492 141.438 157.22 140.332C156.961 139.407 156.134 138.574 156.301 137.545C156.626 135.76 159.287 134.697 160.442 133.525Z" fill="black"/>
<path d="M160.442 132.825C162.25 130.876 162.332 127.887 160.632 125.843C159.947 125.231 159.309 124.569 158.724 123.861C158.467 123.319 158.155 122.805 157.793 122.327C156.885 121.402 155.357 121.649 154.11 121.27C152.956 120.793 151.925 120.063 151.093 119.132C149.61 117.777 147.959 116.618 146.18 115.684C144.4 114.613 142.324 114.141 140.256 114.339C138.664 114.603 137.245 115.488 135.688 115.931C133.481 116.557 130.763 116.425 129.367 118.231C128.706 119.104 128.517 120.259 127.89 121.162C127.005 122.438 125.379 123.035 124.442 124.294C123.413 125.713 123.523 127.661 123.965 129.356C124.384 130.412 124.538 131.554 124.413 132.683C124.287 133.223 124.005 133.723 123.896 134.269C123.609 135.694 124.528 137.044 125.143 138.36C125.825 139.809 126.162 141.396 126.126 142.997C126.083 143.352 126.133 143.712 126.27 144.043C126.449 144.304 126.689 144.518 126.97 144.664L129.613 146.325C129.737 146.415 129.878 146.48 130.027 146.515C130.544 146.59 130.86 146.004 131.176 145.601C132.061 144.544 133.745 144.63 134.992 145.222C136.239 145.814 137.262 146.802 138.514 147.371C141.45 148.71 144.835 147.52 148.014 146.911C149.102 146.749 150.175 146.505 151.226 146.181C152.216 145.781 153.16 145.277 154.042 144.676C154.937 144.169 155.749 143.529 156.45 142.776C157.222 141.94 157.523 140.772 157.25 139.667C156.991 138.736 156.164 137.903 156.331 136.88C156.626 135.054 159.287 133.991 160.442 132.825Z" fill="#464353"/>
<path d="M100.447 193.315C100.355 195.688 102.378 198.854 102.378 198.854C102.993 200.348 110.555 207.295 110.555 207.295L116.539 211.318C116.539 211.318 124.539 216.242 126.439 217.118C127.387 217.561 128.404 219.418 129.191 221.232C129.978 223.046 130.524 224.68 130.524 224.68C134.089 224.157 136.842 221.278 137.207 217.693C137.431 215.429 137.58 213.393 137.385 213.355C136.943 213.269 132.018 209.574 132.018 209.574C132.018 209.574 126.306 205.879 124.456 202.19C122.606 198.501 115.4 192.87 115.4 192.87L115.515 192.657L115.929 191.898L116.808 188.998L103.017 182.844C103.017 182.844 102.678 183.964 102.241 185.499C101.431 188.051 100.831 190.665 100.447 193.315Z" fill="#ECB4B6"/>
<path opacity="0.1" d="M102.226 185.518C104.832 188.084 107.618 190.459 110.564 192.626C111.42 193.126 114.42 192.816 115.517 192.678L115.931 191.92L116.81 189.02L103.019 182.866C103.019 182.866 102.657 183.972 102.226 185.518Z" fill="black"/>
<path d="M115.925 174.846C115.925 174.846 122.958 179.069 122.608 180.914C122.258 182.759 119.275 189.137 119.275 189.137L115.925 191.907C115.925 191.907 111.615 192.522 110.558 191.907C109.501 191.292 102.031 185.138 101.766 184.173C101.633 182.534 101.633 180.887 101.766 179.248C101.766 178.548 103.875 175.111 103.875 175.111L106.955 169.664L115.925 174.846Z" fill="#464353"/>
<path opacity="0.1" d="M139.572 212.864L141.641 218.421L138.153 221.721L137.992 222.715L130.252 227.168L127.793 220.956L139.572 212.864Z" fill="black"/>
<path d="M139.572 212.513L141.641 218.064L138.153 221.364L137.992 222.358L130.252 226.811L127.793 220.599L139.572 212.513Z" fill="#5E5A6B"/>
<g opacity="0.1">
<path d="M156.454 136.445C156.332 136.128 156.293 135.786 156.339 135.451C156.626 133.651 159.287 132.578 160.439 131.429C161.193 130.644 161.671 129.636 161.801 128.556C162.025 130.122 161.524 131.704 160.439 132.856C159.379 133.899 157.046 134.885 156.454 136.445Z" fill="black"/>
<path d="M123.959 134.192C124.264 135.165 124.671 136.103 125.171 136.992C125.835 138.422 126.163 139.984 126.131 141.56C126.086 141.915 126.133 142.275 126.269 142.606C126.447 142.868 126.688 143.081 126.969 143.227L129.612 144.888C129.736 144.981 129.879 145.046 130.031 145.078C130.542 145.153 130.858 144.567 131.18 144.17C132.065 143.113 133.754 143.193 134.995 143.785C136.236 144.377 137.265 145.365 138.518 145.94C141.46 147.273 144.839 146.089 148.018 145.474C149.106 145.315 150.18 145.071 151.23 144.744C152.221 144.345 153.165 143.84 154.046 143.238C154.943 142.732 155.757 142.091 156.459 141.338C156.853 140.879 157.133 140.334 157.275 139.746C157.501 140.819 157.197 141.935 156.459 142.746C155.755 143.497 154.942 144.138 154.046 144.646C153.165 145.248 152.221 145.753 151.23 146.151C150.18 146.475 149.106 146.719 148.018 146.881C144.846 147.49 141.462 148.681 138.518 147.341C137.265 146.766 136.218 145.79 134.995 145.192C133.772 144.594 132.064 144.514 131.18 145.571C130.847 145.971 130.531 146.559 130.031 146.485C129.88 146.45 129.738 146.386 129.612 146.295L126.969 144.634C126.69 144.485 126.451 144.272 126.269 144.013C126.134 143.682 126.086 143.322 126.131 142.967C126.163 141.391 125.835 139.829 125.171 138.399C124.556 137.083 123.637 135.733 123.924 134.308C123.933 134.269 123.945 134.23 123.959 134.192Z" fill="black"/>
<path d="M123.999 127.992C124.399 129.028 124.557 130.143 124.459 131.25C124.359 130.629 124.159 130.009 123.999 129.4C123.724 128.433 123.627 127.424 123.712 126.423C123.763 126.953 123.859 127.478 123.999 127.992Z" fill="black"/>
</g>
<path opacity="0.1" d="M12.429 88.9229C19.2933 88.9229 24.858 83.3583 24.858 76.4939C24.858 69.6296 19.2933 64.0649 12.429 64.0649C5.56465 64.0649 0 69.6296 0 76.4939C0 83.3583 5.56465 88.9229 12.429 88.9229Z" fill="#584DFC"/>
<path opacity="0.1" d="M349.785 36.5518C356.649 36.5518 362.214 30.9872 362.214 24.1228C362.214 17.2585 356.649 11.6938 349.785 11.6938C342.921 11.6938 337.356 17.2585 337.356 24.1228C337.356 30.9872 342.921 36.5518 349.785 36.5518Z" fill="#584DFC"/>
<path opacity="0.1" d="M546.957 85.6529C553.821 85.6529 559.386 80.0883 559.386 73.2239C559.386 66.3596 553.821 60.7949 546.957 60.7949C540.093 60.7949 534.528 66.3596 534.528 73.2239C534.528 80.0883 540.093 85.6529 546.957 85.6529Z" fill="#584DFC"/>
<path opacity="0.1" d="M37.2812 165.894C48.7853 165.894 58.1112 156.568 58.1112 145.064C58.1112 133.56 48.7853 124.234 37.2812 124.234C25.7771 124.234 16.4512 133.56 16.4512 145.064C16.4512 156.568 25.7771 165.894 37.2812 165.894Z" fill="#584DFC"/>
<path opacity="0.1" d="M291.692 474.472C303.196 474.472 312.522 465.146 312.522 453.642C312.522 442.138 303.196 432.812 291.692 432.812C280.188 432.812 270.862 442.138 270.862 453.642C270.862 465.146 280.188 474.472 291.692 474.472Z" fill="#584DFC"/>
<path opacity="0.1" d="M569.172 462.463C580.676 462.463 590.002 453.137 590.002 441.633C590.002 430.129 580.676 420.803 569.172 420.803C557.668 420.803 548.342 430.129 548.342 441.633C548.342 453.137 557.668 462.463 569.172 462.463Z" fill="#584DFC"/>
<defs>
<linearGradient id="paint0_linear_105_28" x1="480.67" y1="325.458" x2="480.67" y2="111.679" gradientUnits="userSpaceOnUse">
<stop stop-color="#808080" stop-opacity="0.251"/>
<stop offset="0.54" stop-color="#808080" stop-opacity="0.122"/>
<stop offset="1" stop-color="#808080" stop-opacity="0.102"/>
</linearGradient>
</defs>
</svg>
